# xmcd
#
# Track frame offsets: 
#        150
#        34588
#        52476
#        79042
#        101271
#        134922
#        162876
#        183647
#        204139
#        216491
#
# Disc length: 3118 seconds
#
# Revision: 0
# Processed by: cddbd v1.5.2PL0 Copyright (c) Steve Scherf et al.
# Submitted via: ExactAudioCopy v1.3
#
DISCID=910c2c0a
DTITLE=Tom Waits - Real Gone In Amsterdam [CD2]
DYEAR=2019
DGENRE=Alt. Rock
TTITLE0=Eyeball Kid
TTITLE1=Walk Away
TTITLE2=Metropolitan Glide
TTITLE3=What's He Building?
TTITLE4=Shake It
TTITLE5=16 Shells From A Thirty-Ought Six
TTITLE6=Trampled Rose
TTITLE7=House Where Nobody Lives
TTITLE8=Dead Ringers Story
TTITLE9=Lucky Day
EXTD=
EXTT0=
EXTT1=
EXTT2=
EXTT3=
EXTT4=
EXTT5=
EXTT6=
EXTT7=
EXTT8=
EXTT9=
PLAYORDER=
